<?xml version="1.0" encoding="UTF-8"?>
<svg version="1.1" xmlns="http://www.w3.org/2000/svg" width="1024" height="1024">
<path d="M0 0 C337.92 0 675.84 0 1024 0 C1024 337.92 1024 675.84 1024 1024 C686.08 1024 348.16 1024 0 1024 C0 686.08 0 348.16 0 0 Z " fill="#F2EDE3" transform="translate(0,0)"/>
<path d="M0 0 C0.73573242 -0.00040283 1.47146484 -0.00080566 2.22949219 -0.0012207 C29.2931018 0.08346258 56.77859961 6.13105735 77 25.3125 C90.76413433 40.01509804 97.10651038 56.77778157 97 76.75 C96.99436035 77.85649902 96.9887207 78.96299805 96.98291016 80.10302734 C96.86568805 87.98244176 96.30510654 94.95154189 93.6875 102.4375 C93.2853125 103.60667969 92.883125 104.77585937 92.46875 105.98046875 C87.24159969 120.34340994 79.709954 132.92123137 69.6875 144.4375 C68.16380184 146.35189 66.64296609 148.26856173 65.125 150.1875 C61.92520042 154.09590572 58.64986249 157.49110097 54.76171875 160.70703125 C52.44525061 162.6396026 50.26625523 164.69004609 48.0625 166.75 C42.53905322 171.72531848 36.62375999 175.98292135 30.50537109 180.18457031 C28.76003947 181.38750368 27.03008037 182.61011792 25.30078125 183.8359375 C9.73080359 194.70533626 -7.44855036 203.19672132 -24.47216797 211.53564453 C-57.58009538 227.76019798 -90.85566371 244.38624755 -118.3125 269.4375 C-118.3125 265.49055201 -116.96612351 264.15243063 -114.6875 260.9375 C-114.29506104 260.38070557 -113.90262207 259.82391113 -113.49829102 259.25024414 C-109.23341407 253.23950165 -104.81912033 247.33603746 -100.42651367 241.41845703 C-96.33061993 235.88074151 -92.4207222 230.26934739 -88.66796875 224.4921875 C-87.3125 222.4375 -87.3125 222.4375 -86.3125 221.4375 C-86.20424555 219.47387727 -86.16619059 217.50636634 -86.15478516 215.53979492 C-86.14438202 214.26421722 -86.13397888 212.98863953 -86.1232605 211.67440796 C-86.11980495 210.98333324 -86.11634941 210.29225853 -86.11278915 209.58024216 C-86.09746443 206.62867376 -86.07004096 203.67725345 -86.04339027 200.72576904 C-86.02926173 199.1502325 -86.01567272 197.57469104 -86.00258446 195.99914551 C-85.57918 145.20812863 -82.47009343 94.97514216 -77.3125 44.4375 C-72.5044095 42.39121214 -67.95277344 41.57344682 -62.8125 40.8125 C-61.57886719 40.61140625 -61.57886719 40.61140625 -60.3203125 40.40625 C-55.33840667 39.65513189 -50.51165226 39.37090181 -45.47070312 39.40087891 C-44.31348755 39.40616608 -43.15627197 39.41145325 -41.96398926 39.41690063 C-41.0889978 39.42369843 -40.21400635 39.43049622 -39.3125 39.4375 C-39.28895048 48.21116565 -39.27137436 56.98481982 -39.26068783 65.75851059 C-39.25554947 69.83592626 -39.24862484 73.91331975 -39.23706055 77.99072266 C-39.19301017 93.97946278 -39.18322132 109.95635592 -39.7421875 125.9375 C-39.77960556 127.01835876 -39.81702362 128.09921753 -39.85557556 129.21282959 C-40.57189515 147.15060365 -43.01729074 164.80064268 -46.25 182.4375 C-46.37120209 183.11059204 -46.49240417 183.78368408 -46.61727905 184.47717285 C-48.13178406 192.79782073 -50.11193647 200.60054901 -53.3125 208.4375 C-30.5515116 193.98847402 -30.5515116 193.98847402 -9.3125 177.4375 C-8.49652344 176.73238281 -7.68054688 176.02726563 -6.83984375 175.30078125 C-4.29208814 173.05181156 -1.79675028 170.75638415 0.6875 168.4375 C1.61175781 167.59058594 2.53601563 166.74367188 3.48828125 165.87109375 C20.92911081 149.47438075 34.36947745 128.5782091 40.6875 105.4375 C40.87296387 104.77306885 41.05842773 104.1086377 41.24951172 103.42407227 C42.86497826 97.06451421 42.98643559 90.91197913 42.9375 84.375 C42.94523438 83.33794922 42.95296875 82.30089844 42.9609375 81.23242188 C42.92194878 65.86111821 37.04639017 52.8164973 26.34375 41.83984375 C18.30662146 34.57097015 9.10292946 30.2681542 -1.3125 27.4375 C-2.26366699 27.17638428 -3.21483398 26.91526855 -4.19482422 26.64624023 C-14.42941798 24.13348851 -24.32336477 23.92250557 -34.8125 24 C-35.69711914 24.00337372 -36.58173828 24.00674744 -37.49316406 24.01022339 C-51.11898098 24.08547439 -64.10757299 24.82903459 -77.3125 28.4375 C-78.87532715 28.86337402 -78.87532715 28.86337402 -80.46972656 29.29785156 C-86.6780147 31.01865658 -92.8525821 32.83218876 -99.00439453 34.74487305 C-101.09612638 35.3725696 -103.18930185 35.92794467 -105.3125 36.4375 C-101.01779668 31.66462353 -96.07488303 28.47300384 -90.625 25.125 C-89.69598877 24.55394531 -88.76697754 23.98289063 -87.80981445 23.39453125 C-69.95998943 12.63564924 -50.87897307 5.77969197 -30.3125 2.4375 C-29.3212915 2.26903564 -28.33008301 2.10057129 -27.30883789 1.92700195 C-18.18641844 0.4829374 -9.21339721 -0.00522183 0 0 Z " fill="#8C3604" transform="translate(613.3125,215.5625)"/>
<path d="M0 0 C0.66 0 1.32 0 2 0 C15.69269558 15.74981417 24.12080963 34.86218039 23.17480469 55.85693359 C21.91927539 71.24944217 14.08618987 84.69814883 4 96 C3.34644531 96.73605469 2.69289063 97.47210938 2.01953125 98.23046875 C-13.66684747 114.8586188 -34.74011226 124.5318071 -54.9921875 134.3671875 C-55.97269073 134.84381332 -56.95319397 135.32043915 -57.96340942 135.81150818 C-62.90429948 138.21014538 -67.85112487 140.59509041 -72.80908203 142.95825195 C-95.02133763 153.61164375 -120.59556374 166.27788532 -131 190 C-133.52232783 197.5669835 -132.81603439 205.25035177 -129.375 212.375 C-122.61466359 224.29126119 -112.24368678 231.49518633 -101.3203125 239.3984375 C-91.61482081 246.42524079 -82.57949044 253.63499682 -74 262 C-73.3296875 262.59683594 -72.659375 263.19367188 -71.96875 263.80859375 C-61.69320999 273.17334726 -53.54562468 287.8324939 -52.796875 301.78515625 C-52.63452517 310.63270501 -53.1550734 318.53377266 -56 327 C-56.35191406 328.06863281 -56.70382812 329.13726562 -57.06640625 330.23828125 C-61.93363848 343.90829651 -69.93686084 353.85232396 -80 364 C-80.86496094 364.87785156 -81.72992188 365.75570313 -82.62109375 366.66015625 C-92.70904659 376.34889026 -104.87289675 383.31605119 -116.9375 390.25 C-117.61772217 390.64517822 -118.29794434 391.04035645 -118.9987793 391.44750977 C-120.63102351 392.36338362 -122.31213996 393.19118939 -124 394 C-124.66 393.67 -125.32 393.34 -126 393 C-124.89205078 392.05253906 -124.89205078 392.05253906 -123.76171875 391.0859375 C-107.72216426 377.07397453 -93.36277089 358.74368481 -91.76171875 336.72265625 C-91.33059438 317.27667811 -99.01221818 302.16497912 -112.22558594 288.30151367 C-119.85594241 280.56229221 -128.02299809 274.08977737 -137 268 C-137.8667334 267.41186523 -138.7334668 266.82373047 -139.62646484 266.21777344 C-141.52873913 264.92853098 -143.43125063 263.63963849 -145.33398438 262.35107422 C-162.90113831 250.44647409 -162.90113831 250.44647409 -170 244 C-170.51852539 243.54512207 -171.03705078 243.09024414 -171.57128906 242.62158203 C-182.50591688 232.9437716 -190.77304451 221.92038467 -192 207 C-192.07863281 206.08734375 -192.15726562 205.1746875 -192.23828125 204.234375 C-192.66276508 190.02533734 -185.86962114 177.36776812 -176.75 166.8125 C-153.73541785 142.64718874 -120.75146107 129.99429529 -90.77630615 116.76968384 C-35.62849875 92.89207449 -35.62849875 92.89207449 1.4765625 47.70703125 C6.64623453 34.23411504 7.0059212 19.62587332 2 6 C1.4121875 4.1746875 1.4121875 4.1746875 0.8125 2.3125 C0.4103125 1.1678125 0.4103125 1.1678125 0 0 Z " fill="#8B3603" transform="translate(563,99)"/>
<path d="M0 0 C-2.16684733 2.16684733 -3.32067954 2.58190424 -6.19140625 3.48046875 C-7.04557129 3.75375 -7.89973633 4.02703125 -8.77978516 4.30859375 C-9.69808105 4.59863281 -10.61637695 4.88867188 -11.5625 5.1875 C-34.77739239 11.72587378 -34.77739239 11.72587378 -53 26 C-53.50010524 28.95769177 -53.50010524 28.95769177 -53 32 C-50.17092768 35.45479655 -47.29853314 36.98903046 -43.1875 38.625 C-42.19105469 39.02976562 -41.19460938 39.43453125 -40.16796875 39.8515625 C-32.35355944 42.68440632 -24.35757842 44.17263099 -16.19921875 45.60888672 C-14.7943128 45.85873789 -13.39051253 46.1149446 -11.98828125 46.37939453 C5.49058329 49.67170521 23.27833397 50.80921441 41 52 C41.79827209 52.05434204 42.59654419 52.10868408 43.41900635 52.16467285 C70.82039521 54.00050657 98.24364629 54.20678175 125.69539642 54.24542618 C128.31812226 54.24990292 130.94082159 54.25759815 133.5635376 54.26596069 C195.01186498 54.43537544 260.41256814 52.82307847 320.125 37 C320.98319336 36.77521973 321.84138672 36.55043945 322.72558594 36.31884766 C329.77648967 34.33795912 339.84667288 31.41877828 344 25 C344.91720924 21.58643656 344.91720924 21.58643656 344 18 C341.91323221 15.63361568 339.58340094 13.79915423 337 12 C337.66 11.67 338.32 11.34 339 11 C341.8984375 12.29296875 341.8984375 12.29296875 345.375 14.1875 C346.51710938 14.79980469 347.65921875 15.41210938 348.8359375 16.04296875 C355.49871985 20.16402302 355.49871985 20.16402302 356.63671875 24.33203125 C356.73064662 28.92004662 356.5118624 32.17739068 353.375 35.6875 C331.72898113 54.1976771 294.98200842 58.64384296 268 63 C267.34880188 63.10570312 266.69760376 63.21140625 266.02667236 63.3203125 C237.47600817 67.93497744 208.73764364 70.81372907 179.82128906 71.70996094 C178.99467773 71.73606445 178.16806641 71.76216797 177.31640625 71.7890625 C176.27141968 71.81540771 176.27141968 71.81540771 175.20532227 71.84228516 C172.89234994 71.96940636 172.89234994 71.96940636 170.21313477 72.4934082 C166.56044959 73.06930074 162.96204411 73.22837401 159.2734375 73.31640625 C158.51361572 73.33727798 157.75379395 73.35814972 156.97094727 73.37965393 C154.43907264 73.44642003 151.90710787 73.50529353 149.375 73.5625 C148.49273743 73.58334656 147.61047485 73.60419312 146.70147705 73.62567139 C103.6735032 74.61888249 60.76772228 74.18619204 17.8125 71.5 C16.7556601 71.43428802 15.69882019 71.36857605 14.60995483 71.3008728 C11.60031485 71.11161553 8.59112922 70.91642019 5.58203125 70.71875 C4.67313141 70.66145218 3.76423157 70.60415436 2.82778931 70.54512024 C1.98590057 70.48833603 1.14401184 70.43155182 0.27661133 70.37304688 C-0.45595383 70.32498901 -1.18851898 70.27693115 -1.94328308 70.22741699 C-4.03578776 69.99604285 -5.96315573 69.52142282 -8 69 C-10.16444765 68.82427809 -12.33172955 68.68214555 -14.5 68.5625 C-20.13666142 68.19451071 -25.57506147 67.47183485 -31.12890625 66.46875 C-33.96427934 66.00583194 -36.76173931 65.72488443 -39.625 65.5 C-44.8694391 65.06048025 -49.86990387 64.15752503 -55 63 C-55.63244629 62.86190918 -56.26489258 62.72381836 -56.91650391 62.58154297 C-89.09828381 55.53547414 -89.09828381 55.53547414 -95.30859375 45.98828125 C-96.4739996 42.63691642 -95.92106032 40.39640991 -95 37 C-85.23748793 19.31544944 -54.44801955 13.00998064 -36.96655273 7.8762207 C-35.08521137 7.32053523 -33.20669476 6.75511864 -31.33227539 6.17651367 C-25.66578494 4.42741981 -19.99377293 3.01492719 -14.1875 1.8125 C-13.36830078 1.63525391 -12.54910156 1.45800781 -11.70507812 1.27539062 C-7.74555712 0.44501335 -4.0711262 -0.23947801 0 0 Z " fill="#8C3606" transform="translate(345,665)"/>
<path d="M0 0 C-0.845625 0.845625 -1.69125 1.69125 -2.5625 2.5625 C-4.81213749 5.27360159 -4.99566187 5.87419428 -5.125 9.625 C-3.74812557 13.75562328 -2.74573838 14.81498594 1 17 C7.90072415 19.84255972 15.03224338 21.01649206 22.375 22.125 C23.43460937 22.29386719 24.49421875 22.46273437 25.5859375 22.63671875 C37.38018441 24.47234296 48.9093606 25.15320236 60.84375 25.1328125 C62.26224789 25.13348887 63.68074566 25.13446164 65.09924316 25.13571167 C68.06096509 25.13717686 71.02265664 25.13507492 73.984375 25.13037109 C77.72139422 25.12471568 81.45834161 25.12802946 85.19535828 25.13380814 C111.67205387 25.36397329 111.67205387 25.36397329 138 23 C139.94869295 22.89295074 141.89757556 22.78675997 143.84765625 22.70898438 C151.91031717 22.3849709 159.57316711 21.29674583 167.47265625 19.69921875 C171.64733227 18.87168053 175.75490532 18.27360962 180 18 C180.721875 17.94714844 181.44375 17.89429688 182.1875 17.83984375 C191.87796648 17.45289804 200.61616901 21.5427776 209.578125 24.80078125 C213.38442777 26.13472526 217.2164952 27.27365682 221.109375 28.32421875 C223 29 223 29 225 31 C223.08479539 31.75372569 221.16772744 32.50271654 219.25 33.25 C218.18265625 33.66765625 217.1153125 34.0853125 216.015625 34.515625 C206.46683081 38.10097196 196.90681566 40.90595796 186.9375 43.0625 C185.17249146 43.44873535 185.17249146 43.44873535 183.37182617 43.84277344 C174.30539126 45.79259753 165.2337377 47.45435421 156.046875 48.71630859 C154.1641991 48.97724244 152.28498561 49.2628446 150.40625 49.55078125 C100.21893507 56.69701849 21.91218868 63.36024126 -22.13671875 34.40625 C-25.88627723 31.57639454 -29.1678695 28.63949675 -30.61328125 24.0546875 C-31.03840532 19.8034468 -29.82223517 17.23410101 -27.1875 13.9375 C-21.56734984 8.1583961 -8.47754462 -2.82584821 0 0 Z " fill="#8B3605" transform="translate(378,554)"/>
<path d="M0 0 C-2.5993747 2.5993747 -4.39739576 2.63284202 -8 3.3125 C-16.06990609 4.94963259 -23.93615017 7.12230434 -31.84863281 9.39013672 C-33.83989682 9.95461442 -35.83769176 10.49591478 -37.8359375 11.03515625 C-53.35540493 14.89615339 -53.35540493 14.89615339 -66 24 C-66.65870305 27.13332411 -66.65870305 27.13332411 -65 30 C-59.75802581 33.67598599 -53.69357821 35.00493621 -47.5 36.125 C-46.61473633 36.29112793 -45.72947266 36.45725586 -44.81738281 36.62841797 C-13.69838293 42.3348772 18.0388864 42.3357867 49.57128906 42.26074219 C54.39987075 42.2493648 59.22823149 42.25612588 64.05680561 42.26761723 C93.11991271 42.32633753 122.11825045 41.73102288 151.01196289 38.30493164 C153.12987504 38.05453436 155.24920872 37.82051651 157.36914062 37.58789062 C177.08633991 35.36902361 196.24909555 31.5821759 215 25 C216.9990617 24.330525 218.99882939 23.66314451 221 23 C221.45755662 28.36103836 221.45755662 28.36103836 219.453125 31.16015625 C213.42313994 36.36689867 207.49335021 39.3725848 200 42 C198.59621094 42.52013672 198.59621094 42.52013672 197.1640625 43.05078125 C188.61796081 46.0828913 179.84822846 48.08969303 171 50 C170.25766113 50.165 169.51532227 50.33 168.75048828 50.5 C141.02704701 56.5854885 112.28874308 58.62763137 84 60 C82.22761963 60.08677002 82.22761963 60.08677002 80.41943359 60.17529297 C29.28681196 62.55700596 -23.12074407 62.00159646 -73.6875 53.5625 C-74.851604 53.36938232 -76.01570801 53.17626465 -77.21508789 52.97729492 C-88.19161245 51.02195938 -101.13613713 48.43479974 -109.5625 40.625 C-111 38 -111 38 -111.25 35.125 C-108.15803356 27.3950839 -100.90156198 24.1809361 -93.6875 20.9375 C-90.48064419 19.56495135 -87.25119815 18.26364797 -84 17 C-82.97543701 16.59998779 -82.97543701 16.59998779 -81.93017578 16.19189453 C-70.28350322 11.7968698 -58.08611444 9.37227502 -45.9375 6.8125 C-44.7375238 6.55956177 -44.7375238 6.55956177 -43.51330566 6.30151367 C-34.82759093 4.4838527 -26.12131992 2.78474649 -17.37890625 1.26171875 C-16.66895004 1.13328079 -15.95899384 1.00484283 -15.2275238 0.87251282 C-10.10042717 0.00775716 -5.1991849 -0.10310903 0 0 Z " fill="#8C3706" transform="translate(404,478)"/>
<path d="M0 0 C0.66 0.33 1.32 0.66 2 1 C1.505 1.515625 1.01 2.03125 0.5 2.5625 C-1.59311615 5.96381375 -1.55147685 8.07072743 -1 12 C5.77056839 21.39143358 18.81246476 22.49177279 29.37695312 24.58276367 C37.46103743 25.86866279 45.40871095 26.17151018 53.58984375 26.203125 C54.79529846 26.21009399 56.00075317 26.21706299 57.24273682 26.22424316 C61.14102669 26.24163647 65.03917287 26.24796933 68.9375 26.25 C69.93152014 26.25088371 69.93152014 26.25088371 70.94562149 26.25178528 C97.68202459 26.26858996 123.90780336 25.36782629 150.23706055 20.27050781 C158.34571941 18.72829185 166.74131995 17.74437404 174.6875 20.5 C175.74710938 20.85578125 176.80671875 21.2115625 177.8984375 21.578125 C178.51428711 21.79275391 179.13013672 22.00738281 179.76464844 22.22851562 C182.55663129 23.19210953 185.35994044 24.11920822 188.1640625 25.046875 C194.11429918 27.01668117 200.05857609 29.00378617 206 31 C206 31.66 206 32.32 206 33 C179.2367711 42.84785949 179.2367711 42.84785949 167 46 C165.61361328 46.39251953 165.61361328 46.39251953 164.19921875 46.79296875 C154.62092633 49.40282159 144.8153128 50.63709179 135 52 C133.61193046 52.19887913 132.22390589 52.39807247 130.8359375 52.59765625 C115.73803331 54.7076118 100.92639084 55.18642541 85.70068359 55.18530273 C82.40318736 55.18748138 79.10603077 55.2056699 75.80859375 55.22460938 C45.10891107 55.30629962 5.55807715 53.93987947 -18.328125 31.89453125 C-21.71948461 28.05151861 -22.7129394 24.4946516 -22.546875 19.4296875 C-21.10475515 13.02255503 -15.7112327 9.01245637 -10.421875 5.62109375 C-7.01697815 3.56402343 -3.6315517 1.62990903 0 0 Z " fill="#8C3504" transform="translate(389,622)"/>
<path d="M0 0 C0.66 0.33 1.32 0.66 2 1 C2.39737512 8.44710402 2.22841278 13.31706948 -2.88671875 19.15234375 C-25.43314148 42.8005114 -65.04629421 51.13775999 -96 57 C-97.24910156 57.23662354 -98.49820312 57.47324707 -99.78515625 57.71704102 C-110.62685284 59.72143788 -121.52115549 61.25579192 -132.45263672 62.67993164 C-135.3380791 63.05766666 -138.22171921 63.44747 -141.10546875 63.83789062 C-168.62724018 67.49952607 -195.83732904 68.32702629 -223.55932617 68.26074219 C-228.34232238 68.24937295 -233.12509539 68.25611301 -237.90808392 68.26761818 C-259.69046426 68.31212964 -281.2930665 67.95217041 -303 66 C-303.90048065 65.91967529 -304.8009613 65.83935059 -305.72872925 65.7565918 C-310.84945515 65.28661034 -315.95664817 64.73433122 -321.0625 64.125 C-321.78673157 64.04073761 -322.51096313 63.95647522 -323.25714111 63.86965942 C-335.28906671 62.4632645 -347.16597123 60.60320821 -359 58 C-360.27746094 57.731875 -361.55492187 57.46375 -362.87109375 57.1875 C-367.98568306 56.07285625 -372.9182586 54.85458445 -377.76953125 52.87890625 C-381.99525726 51.21377779 -386.32985577 49.83079477 -390.6328125 48.37890625 C-394.19328457 46.9208475 -396.88540393 45.22944491 -400 43 C-396.88450002 41.44225001 -394.43470717 42.56275698 -391.0625 43.25 C-389.59023659 43.53847057 -388.11756196 43.8248485 -386.64453125 44.109375 C-385.8757666 44.25826172 -385.10700195 44.40714844 -384.31494141 44.56054688 C-362.11257265 48.77529733 -339.63099531 50.91124928 -317.08203125 52.07421875 C-315.83197139 52.13913387 -315.83197139 52.13913387 -314.55665779 52.20536041 C-296.54991753 53.11901503 -278.56526893 53.30942674 -260.53833008 53.26074219 C-256.28522514 53.24933976 -252.0323705 53.25615958 -247.77927399 53.26761723 C-230.04671196 53.30807907 -212.36252045 53.03484281 -194.65234375 52.10546875 C-193.89204802 52.06637138 -193.13175228 52.02727402 -192.34841728 51.98699188 C-175.80942856 51.11473876 -159.38879245 49.26509208 -142.95690918 47.2388916 C-139.96487999 46.87363671 -136.97066008 46.52751723 -133.9765625 46.1796875 C-131.90092111 45.93330519 -129.82539059 45.68598605 -127.75 45.4375 C-126.87746582 45.3351001 -126.00493164 45.2327002 -125.10595703 45.12719727 C-117.76013481 44.21264871 -110.50808677 42.83994172 -103.24353027 41.43344116 C-100.92783754 40.9860585 -98.61101647 40.54492051 -96.29394531 40.10473633 C-68.27797228 35.00016045 -68.27797228 35.00016045 -41 27 C-40.22092285 26.7230127 -39.4418457 26.44602539 -38.63916016 26.16064453 C-15.54614725 17.95036518 -15.54614725 17.95036518 0 0 Z " fill="#8D3808" transform="translate(726,705)"/>
<path d="M0 0 C0.99128906 0.35191406 1.98257813 0.70382812 3.00390625 1.06640625 C15.52794867 5.81582409 23.88116311 13.37725144 30.203125 25.26171875 C31.36154075 29.24235327 31.34070668 33.061266 31.3125 37.1875 C31.30686035 38.03957031 31.3012207 38.89164063 31.29541016 39.76953125 C30.95437773 57.43568641 21.22651463 71.13697204 8.85107422 83.17651367 C-12.20377692 102.94634329 -40.62957038 114.51807605 -68.5625 120.3125 C-69.86707153 120.58827881 -69.86707153 120.58827881 -71.19799805 120.86962891 C-72.02082275 121.03253418 -72.84364746 121.19543945 -73.69140625 121.36328125 C-74.42560791 121.51063721 -75.15980957 121.65799316 -75.91625977 121.80981445 C-78.18680446 122.01704987 -79.8358264 121.6749877 -82 121 C-80.36417969 120.30777344 -80.36417969 120.30777344 -78.6953125 119.6015625 C-49.91389563 107.23032009 -17.77465976 89.85962861 -5.0625 59.5 C-4.36180696 57.67166835 -3.67325637 55.83861177 -3 54 C-2.45279297 52.81664062 -2.45279297 52.81664062 -1.89453125 51.609375 C0.40074786 44.91397568 0.10840938 35.63087371 -2.5625 29.0625 C-7.40761626 20.1293169 -13.38480467 15.30433704 -23 12 C-36.52326292 8.54209727 -51.52462511 11.78293132 -65 14 C-62.05831014 7.56589295 -56.07421652 4.25730368 -49.6953125 1.6484375 C-48.51710938 1.22820312 -47.33890625 0.80796875 -46.125 0.375 C-44.95195313 -0.05039062 -43.77890625 -0.47578125 -42.5703125 -0.9140625 C-29.69419345 -4.83043131 -12.57181371 -4.9453106 0 0 Z " fill="#8B3505" transform="translate(697,480)"/>
<path d="M0 0 C-2.2158395 2.2158395 -3.60437424 2.70651636 -6.54296875 3.69140625 C-7.45240234 3.99626953 -8.36183594 4.30113281 -9.29882812 4.61523438 C-10.25208984 4.92783203 -11.20535156 5.24042969 -12.1875 5.5625 C-13.12142578 5.87896484 -14.05535156 6.19542969 -15.01757812 6.52148438 C-20.02468818 8.18112465 -24.74829968 9.46974533 -30 10 C-28.68 9.01 -27.36 8.02 -26 7 C-26.99 6.34 -27.98 5.68 -29 5 C-25.10590112 4.15841983 -21.20946688 3.3281894 -17.3125 2.5 C-16.20970703 2.26152344 -15.10691406 2.02304687 -13.97070312 1.77734375 C-12.90400391 1.55175781 -11.83730469 1.32617188 -10.73828125 1.09375 C-9.75899658 0.88427734 -8.77971191 0.67480469 -7.77075195 0.45898438 C-5.12044367 0.0199519 -2.68006268 -0.08555667 0 0 Z " fill="#8F3D14" transform="translate(345,665)"/>
<path d="M0 0 C-2.69384518 2.69384518 -4.90439125 2.76703211 -8.625 3.5 C-12.63535015 4.30863764 -16.61328646 5.11871092 -20.5625 6.1875 C-23.54471447 6.89238706 -25.95949545 7.19003153 -29 7 C-29 6.34 -29 5.68 -29 5 C-30.32 4.67 -31.64 4.34 -33 4 C-29.1896065 3.32091103 -25.37640981 2.65902937 -21.5625 2 C-20.49322266 1.80921875 -19.42394531 1.6184375 -18.32226562 1.421875 C-12.11337002 0.35857789 -6.29838048 -0.21193289 0 0 Z " fill="#9F5630" transform="translate(404,478)"/>
<path d="M0 0 C-0.33 1.32 -0.66 2.64 -1 4 C-3.24743045 4.53181175 -5.49807102 5.05007126 -7.75 5.5625 C-9.62945313 5.99755859 -9.62945313 5.99755859 -11.546875 6.44140625 C-14.7304498 6.95639629 -16.04508146 6.88590949 -19 6 C-16.40074504 4.80057395 -13.79654493 3.61527179 -11.1875 2.4375 C-10.08051758 1.92413086 -10.08051758 1.92413086 -8.95117188 1.40039062 C-8.23896484 1.08134766 -7.52675781 0.76230469 -6.79296875 0.43359375 C-6.1383667 0.13509521 -5.48376465 -0.16340332 -4.80932617 -0.47094727 C-3 -1 -3 -1 0 0 Z " fill="#934821" transform="translate(634,595)"/>
<path d="M0 0 C0.33 0.99 0.66 1.98 1 3 C-3.41351876 4.78642426 -6.38267751 5.36420892 -11 4 C-11.66 3.01 -12.32 2.02 -13 1 C-8.59085217 -0.10228696 -4.51617599 -0.07654536 0 0 Z " fill="#913E12" transform="translate(375,483)"/>
<path d="M0 0 C0.66 0 1.32 0 2 0 C2.25 2.26171875 2.25 2.26171875 2 5 C0.25 7.01953125 0.25 7.01953125 -2 8.8125 C-2.7425 9.41707031 -3.485 10.02164062 -4.25 10.64453125 C-4.8275 11.09183594 -5.405 11.53914063 -6 12 C-6 8.40941456 -5.10368497 7.25212529 -3.125 4.3125 C-2.59132813 3.50425781 -2.05765625 2.69601562 -1.5078125 1.86328125 C-1.01023437 1.24839844 -0.51265625 0.63351562 0 0 Z " fill="#964618" transform="translate(501,473)"/>
<path d="M0 0 C0.99 0.99 1.98 1.98 3 3 C-0.63 3.33 -4.26 3.66 -8 4 C-8 3.34 -8 2.68 -8 2 C-9.32 1.67 -10.64 1.34 -12 1 C-7.94762072 0.22811823 -4.12401319 -0.36657895 0 0 Z " fill="#984D23" transform="translate(383,481)"/>
<path d="M0 0 C0 3 0 3 -2.40625 5.69921875 C-3.4299968 6.70302243 -4.4616054 7.69885649 -5.5 8.6875 C-6.02464844 9.19861328 -6.54929687 9.70972656 -7.08984375 10.23632812 C-8.38660904 11.49772708 -9.69246117 12.74977212 -11 14 C-11.66 13.67 -12.32 13.34 -13 13 C-8.96476648 8.18876004 -4.95532767 3.86757281 0 0 Z " fill="#914316" transform="translate(397,256)"/>
<path d="M0 0 C-3.46773321 3.46773321 -8.58572836 3.87272374 -13.37109375 4.125 C-15.24785842 4.125 -17.12447494 4.06820091 -19 4 C-15.93089979 1.9539332 -14.19311799 1.49086694 -10.625 0.875 C-9.68914062 0.70742188 -8.75328125 0.53984375 -7.7890625 0.3671875 C-5.15262977 0.02009412 -2.65503612 -0.06758274 0 0 Z " fill="#A25A34" transform="translate(345,665)"/>
<path d="M0 0 C0.33 0.99 0.66 1.98 1 3 C-0.65519326 6.31038651 -3.65442221 6.78867011 -7 8 C-7.99 7.67 -8.98 7.34 -10 7 C-6.7 4.69 -3.4 2.38 0 0 Z " fill="#9A4D20" transform="translate(518,244)"/>
<path d="M0 0 C0.66 0.33 1.32 0.66 2 1 C0.59535704 2.82183392 -0.8241624 4.63220561 -2.25 6.4375 C-3.43335938 7.95150391 -3.43335938 7.95150391 -4.640625 9.49609375 C-6.90655283 11.90082842 -7.78577367 12.71248893 -11 13 C-10.62488281 12.56429688 -10.24976563 12.12859375 -9.86328125 11.6796875 C-6.54140223 7.81392401 -3.25357073 3.92342352 0 0 Z " fill="#903C0F" transform="translate(454,475)"/>
<path d="M0 0 C0.66 0 1.32 0 2 0 C3.2890625 1.75 3.2890625 1.75 4.625 4 C5.07101562 4.7425 5.51703125 5.485 5.9765625 6.25 C6.31429687 6.8275 6.65203125 7.405 7 8 C6.01 8.495 6.01 8.495 5 9 C1.9083091 6.47043472 1.09068668 3.77545388 0 0 Z " fill="#974D28" transform="translate(563,99)"/>
<path d="M0 0 C0.66 0.33 1.32 0.66 2 1 C0.625 3 0.625 3 -1 5 C-1.66 5 -2.32 5 -3 5 C-3.33 5.66 -3.66 6.32 -4 7 C-4 6.01 -4 5.02 -4 4 C-4.66 3.67 -5.32 3.34 -6 3 C-4.03533587 1.93224776 -2.03144641 0.93446535 0 0 Z " fill="#9A4F21" transform="translate(389,622)"/>
<path d="M0 0 C5.75 1.875 5.75 1.875 8 3 C7.67 4.32 7.34 5.64 7 7 C5.83040013 6.02433888 4.66438823 5.044375 3.5 4.0625 C2.8503125 3.51722656 2.200625 2.97195313 1.53125 2.41015625 C1.0259375 1.94480469 0.520625 1.47945312 0 1 C0 0.67 0 0.34 0 0 Z " fill="#9D5835" transform="translate(682,676)"/>
</svg>
